<svg version="1.1" id="designs" xmlns="http://www.w3.org/2000/svg" xmlns:xlink="http://www.w3.org/1999/xlink" viewBox="-3.2 -3.2 38.40 38.40" xml:space="preserve" fill="#000000"><g id="SVGRepo_bgCarrier" stroke-width="0"><rect x="-3.2" y="-3.2" width="38.40" height="38.40" rx="19.2" fill="#000000" strokewidth="0"></rect></g><g id="SVGRepo_tracerCarrier" stroke-linecap="round" stroke-linejoin="round"></g><g id="SVGRepo_iconCarrier"> <style type="text/css"> .sketchy_een{fill:#ffffff;} </style> <path class="sketchy_een" d="M7.536,30.343c-0.385,0-0.754-0.046-1.125-0.14c-1.049-0.264-1.968-0.736-2.732-1.404 c-0.392-0.344-0.698-0.647-0.962-0.954c-0.21-0.243-0.407-0.498-0.597-0.757c-0.188-0.254-0.382-0.527-0.524-0.843 c-0.482-1.07-0.678-2.105-0.565-2.995c0.128-1.009,0.57-2.039,1.314-3.061c0.617-0.85,1.292-1.619,2.008-2.286 c0.34-0.319,0.688-0.63,1.035-0.941c0.413-0.37,0.826-0.74,1.227-1.123c0,0,0.916-0.887,1.12-1.079 c0.191-0.18,0.388-0.353,0.586-0.525c0.166-0.146,0.333-0.291,0.495-0.441c0.219-0.203,0.433-0.411,0.646-0.619l0.412-0.399 c0.371-0.354,0.738-0.707,1.086-1.081l0.333-0.362c0.203-0.221,0.406-0.442,0.613-0.66c0.251-0.264,0.511-0.517,0.772-0.771 l0.497-0.489c0.256-0.255,0.511-0.511,0.784-0.748c0.182-0.16,0.921-0.788,1.104-0.949c0.215-0.189,0.427-0.383,0.638-0.578 c0.465-0.428,0.946-0.87,1.465-1.243c0.094-0.172,0.196-0.282,0.359-0.396l1.284-0.895l0.375-0.267 c0.26-0.186,0.519-0.372,0.785-0.549c0.779-0.522,1.605-0.957,2.453-1.392c0.439-0.225,0.954-0.474,1.482-0.591 c0.325-0.073,0.686-0.118,1.104-0.139c0.122-0.005,0.247-0.01,0.373-0.01c0.357,0,0.617,0.039,0.845,0.125 c0.324,0.125,0.585,0.249,0.819,0.39c0.15,0.091,0.294,0.19,0.438,0.29c0.542,0.377,0.92,0.708,1.227,1.061l0.179,0.209 c0.28,0.326,0.562,0.653,0.815,1.001c0.214,0.295,0.485,0.685,0.675,1.092c0.205,0.441,0.407,0.915,0.498,1.39 c0.107,0.555,0.207,1.277,0.025,1.948c-0.083,0.3-0.2,0.583-0.32,0.867c-0.121,0.296-0.217,0.532-0.332,0.755 c-0.207,0.408-0.462,0.819-0.78,1.26c-0.289,0.402-0.606,0.826-0.969,1.213c-0.348,0.371-0.703,0.735-1.059,1.098 c-0.38,0.388-0.769,0.768-1.157,1.148c-0.304,0.298-0.608,0.596-0.908,0.897l-0.313,0.316c-0.238,0.24-0.475,0.48-0.721,0.712 l-1.232,1.159c-0.677,0.647-1.355,1.296-2.017,1.957l-0.107,0.106c-0.644,0.643-1.31,1.308-2.021,1.904l-0.856,0.725 c-0.463,0.394-0.926,0.788-1.397,1.172c0,0-0.906,0.744-1.124,0.918l-0.435,0.339c-0.224,0.174-0.449,0.347-0.668,0.527 c-0.415,0.338-0.824,0.684-1.234,1.031c-0.307,0.26-0.613,0.519-0.923,0.775c-0.461,0.381-0.857,0.672-1.244,0.917 c-0.401,0.254-0.809,0.512-1.224,0.742c-0.253,0.141-0.517,0.261-0.786,0.366c-0.221,0.085-0.395,0.152-0.575,0.184 C8.163,30.313,7.849,30.343,7.536,30.343z M8.071,16.61c-0.601,0.571-1.202,1.14-1.82,1.695c-0.786,0.702-1.452,1.392-2.036,2.11 c-0.213,0.282-0.414,0.564-0.611,0.855c-0.192,0.286-0.346,0.599-0.485,0.895c-0.138,0.371-0.234,0.707-0.298,1.036 c-0.023,0.242-0.026,0.47-0.009,0.702c0.083,0.413,0.206,0.824,0.39,1.307c0.065,0.143,0.13,0.278,0.211,0.405 c0.077,0.12,0.16,0.235,0.245,0.349c0.544,0.678,1.077,1.232,1.632,1.695c0.339,0.245,0.674,0.446,1.032,0.619 c0.308,0.119,0.634,0.235,0.974,0.3c0.143,0.011,0.273,0.016,0.404,0.016c0.106,0,0.213-0.003,0.32-0.009 c0.291-0.052,0.559-0.128,0.831-0.233c0.794-0.361,1.568-0.824,2.306-1.379l0.771-0.623c0.447-0.363,0.894-0.727,1.35-1.08 l0.901-0.689c0.154-0.12,0.656-0.53,0.656-0.53l0.116-0.093l-0.13-0.073c-0.071-0.039-0.141-0.08-0.209-0.135 c-0.325-0.265-0.604-0.56-0.856-0.839l-0.796-0.859c-0.349-0.379-0.682-0.77-1.015-1.161c-0.198-0.233-0.396-0.466-0.598-0.697 c-0.56-0.644-1.115-1.295-1.668-1.947c-0.45-0.533-0.921-1.044-1.393-1.555l-0.14-0.152L8.071,16.61z M17.08,8.022 c-0.098,0.086-0.196,0.171-0.291,0.261c-0.445,0.422-0.905,0.83-1.375,1.226c-0.423,0.359-0.814,0.746-1.207,1.135l-0.395,0.389 c-0.365,0.357-0.729,0.713-1.08,1.082l-0.347,0.371c-0.227,0.244-0.455,0.488-0.688,0.725c-0.26,0.266-0.529,0.522-0.799,0.777 l-0.239,0.227c-0.387,0.371-0.784,0.731-1.181,1.092l-0.074,0.067l0.038,0.1c0.489,0.545,0.976,1.09,1.44,1.661 c0.356,0.438,0.721,0.868,1.086,1.297l0.787,0.935c0.176,0.213,0.352,0.427,0.536,0.635c0.249,0.283,0.507,0.559,0.764,0.835 l0.903,0.973c0.261,0.28,0.541,0.536,0.822,0.791c0.087,0.079,0.147,0.183,0.19,0.329l0.044,0.149l1.024-0.864 c0.824-0.693,1.675-1.409,2.443-2.194c0.664-0.674,1.336-1.341,2.008-2.006l0.153-0.152c0.323-0.321,0.656-0.634,0.987-0.947 c0.385-0.363,0.77-0.727,1.141-1.102l0.545-0.541l-0.152-0.187c-0.209-0.257-0.419-0.513-0.646-0.757 c-0.21-0.223-0.429-0.44-0.646-0.656l-0.198-0.197c-0.626-0.623-1.239-1.257-1.837-1.905c-0.392-0.426-0.767-0.865-1.141-1.304 c-0.204-0.24-0.41-0.48-0.617-0.718c-0.465-0.535-0.987-1.081-1.64-1.72l-0.069-0.066L17.08,8.022z M25.253,3.262 c-0.247,0-0.495,0.016-0.74,0.043c-0.285,0.053-0.572,0.14-0.909,0.275c-0.887,0.398-1.79,0.889-2.69,1.46 c-0.352,0.225-0.689,0.471-1.026,0.718L18.614,6.67c0,0,1.296,1.435,1.866,2.115c0.493,0.587,0.984,1.174,1.506,1.733 c0.523,0.559,1.063,1.1,1.605,1.641l1.085,1.092c0.228,0.234,0.435,0.485,0.642,0.736l0.13,0.154l0.415-0.408 c0.615-0.609,1.324-1.322,1.945-2.081c0.508-0.68,0.867-1.267,1.133-1.853c0.159-0.38,0.322-0.771,0.406-1.186 c0.017-0.23,0.01-0.443-0.01-0.66c-0.066-0.369-0.169-0.734-0.318-1.127c-0.19-0.411-0.44-0.827-0.793-1.317 c-0.384-0.489-0.847-1.045-1.391-1.492c-0.288-0.213-0.629-0.454-1.011-0.653c-0.119-0.043-0.226-0.073-0.337-0.097L25.253,3.262z M16.333,20.001c-0.463,0-0.853-0.391-0.853-0.853c0-0.463,0.391-0.853,0.853-0.853c0.463,0,0.854,0.391,0.854,0.853 C17.187,19.61,16.796,20.001,16.333,20.001z M19.547,16.862c-0.431,0-0.795-0.364-0.795-0.795c0-0.431,0.364-0.795,0.795-0.795 c0.432,0,0.796,0.364,0.796,0.795C20.344,16.498,19.979,16.862,19.547,16.862z M12.926,16.728c-0.472,0-0.872-0.399-0.872-0.872 c0-0.472,0.399-0.872,0.872-0.872s0.872,0.399,0.872,0.872C13.797,16.329,13.398,16.728,12.926,16.728z M16.294,16.531 c-0.441,0-0.814-0.373-0.814-0.814s0.372-0.814,0.814-0.814c0.441,0,0.814,0.372,0.814,0.814S16.735,16.531,16.294,16.531z M16.444,12.618c-0.45,0-0.831-0.38-0.831-0.831s0.38-0.831,0.831-0.831c0.451,0,0.832,0.38,0.832,0.831 S16.895,12.618,16.444,12.618z"></path> </g></svg>